<svg id="SvgjsSvg1066" width="380.0124969482422" height="177" xmlns="http://www.w3.org/2000/svg" version="1.1" xmlns:xlink="http://www.w3.org/1999/xlink" xmlns:svgjs="http://svgjs.com/svgjs"><defs id="SvgjsDefs1067"></defs><g id="SvgjsG1068" transform="translate(41.01249694824219,25)"><path id="SvgjsPath1069" d="M 0 63.5C 0 -21.166666666666668 213 -21.166666666666668 213 63.5C 213 148.16666666666666 0 148.16666666666666 0 63.5Z" stroke="#323232" stroke-width="2" fill-opacity="0.3" fill="#3333ff"></path><g id="SvgjsG1070"><text id="SvgjsText1071" font-family="微软雅黑" text-anchor="middle" font-size="13px" width="0" fill="#323232" font-weight="400" align="middle" anchor="middle" family="微软雅黑" size="13px" weight="400" font-style="" y="53.55" transform="rotate(0)"></text></g></g><g id="SvgjsG1072" transform="translate(129.0124969482422,25)"><path id="SvgjsPath1073" d="M 0 63.5C 0 -21.166666666666668 213 -21.166666666666668 213 63.5C 213 148.16666666666666 0 148.16666666666666 0 63.5Z" stroke="#323232" stroke-width="2" fill-opacity="0.3" fill="#ffff33"></path><g id="SvgjsG1074"><text id="SvgjsText1075" font-family="微软雅黑" text-anchor="middle" font-size="13px" width="0" fill="#323232" font-weight="400" align="middle" anchor="middle" family="微软雅黑" size="13px" weight="400" font-style="" y="53.55" transform="rotate(0)"></text></g></g><g id="SvgjsG1076" transform="translate(129.0124969482422,65.5)"><path id="SvgjsPath1077" d="M 0 0L 120 0L 120 40L 0 40Z" stroke="none" fill="none"></path><g id="SvgjsG1078"><text id="SvgjsText1079" font-family="微软雅黑" text-anchor="middle" font-size="13px" width="64" fill="#323232" font-weight="400" align="middle" anchor="middle" family="微软雅黑" size="13px" weight="400" font-style="" y="10.05" transform="rotate(0)"><tspan id="SvgjsTspan1080" dy="16" x="60"><tspan id="SvgjsTspan1081" style="text-decoration:;">FULL JOIN</tspan></tspan></text></g></g><g id="SvgjsG1082" transform="translate(235.0124969482422,65.5)"><path id="SvgjsPath1083" d="M 0 0L 120 0L 120 40L 0 40Z" stroke="none" fill="none"></path><g id="SvgjsG1084"><text id="SvgjsText1085" font-family="微软雅黑" text-anchor="middle" font-size="13px" width="64" fill="#323232" font-weight="400" align="middle" anchor="middle" family="微软雅黑" size="13px" weight="400" font-style="" y="10.05" transform="rotate(0)"><tspan id="SvgjsTspan1086" dy="16" x="60"><tspan id="SvgjsTspan1087" style="text-decoration:;">FULL JOIN</tspan></tspan></text></g></g><g id="SvgjsG1088" transform="translate(25.012496948242188,65.5)"><path id="SvgjsPath1089" d="M 0 0L 120 0L 120 40L 0 40Z" stroke="none" fill="none"></path><g id="SvgjsG1090"><text id="SvgjsText1091" font-family="微软雅黑" text-anchor="middle" font-size="13px" width="64" fill="#323232" font-weight="400" align="middle" anchor="middle" family="微软雅黑" size="13px" weight="400" font-style="" y="10.05" transform="rotate(0)"><tspan id="SvgjsTspan1092" dy="16" x="60"><tspan id="SvgjsTspan1093" style="text-decoration:;">FULL JOIN</tspan></tspan></text></g></g></svg>