<svg id="SvgjsSvg1022" width="371.00001525878906" height="177" xmlns="http://www.w3.org/2000/svg" version="1.1" xmlns:xlink="http://www.w3.org/1999/xlink" xmlns:svgjs="http://svgjs.com/svgjs"><defs id="SvgjsDefs1023"></defs><g id="SvgjsG1024" transform="translate(44.01249694824219,25)"><path id="SvgjsPath1025" d="M 0 63.5C 0 -21.166666666666668 213 -21.166666666666668 213 63.5C 213 148.16666666666666 0 148.16666666666666 0 63.5Z" stroke="#323232" stroke-width="2" fill-opacity="0.3" fill="#3333ff"></path><g id="SvgjsG1026"><text id="SvgjsText1027" font-family="微软雅黑" text-anchor="middle" font-size="13px" width="0" fill="#323232" font-weight="400" align="middle" anchor="middle" family="微软雅黑" size="13px" weight="400" font-style="" y="53.55" transform="rotate(0)"></text></g></g><g id="SvgjsG1028" transform="translate(132.0124969482422,25)"><path id="SvgjsPath1029" d="M 0 63.5C 0 -21.166666666666668 213 -21.166666666666668 213 63.5C 213 148.16666666666666 0 148.16666666666666 0 63.5Z" stroke="#323232" stroke-width="2" fill-opacity="0.3" fill="#ffff33"></path><g id="SvgjsG1030"><text id="SvgjsText1031" font-family="微软雅黑" text-anchor="middle" font-size="13px" width="0" fill="#323232" font-weight="400" align="middle" anchor="middle" family="微软雅黑" size="13px" weight="400" font-style="" y="53.55" transform="rotate(0)"></text></g></g><g id="SvgjsG1032" transform="translate(132.0124969482422,65.5)"><path id="SvgjsPath1033" d="M 0 0L 120 0L 120 40L 0 40Z" stroke="none" fill="none"></path><g id="SvgjsG1034"><text id="SvgjsText1035" font-family="微软雅黑" text-anchor="middle" font-size="13px" width="62" fill="#323232" font-weight="400" align="middle" anchor="middle" family="微软雅黑" size="13px" weight="400" font-style="" y="10.05" transform="rotate(0)"><tspan id="SvgjsTspan1036" dy="16" x="60"><tspan id="SvgjsTspan1037" style="text-decoration:;">LEFT JOIN</tspan></tspan></text></g></g><g id="SvgjsG1038" transform="translate(25.012496948242188,65.5)"><path id="SvgjsPath1039" d="M 0 0L 120 0L 120 40L 0 40Z" stroke="none" fill="none"></path><g id="SvgjsG1040"><text id="SvgjsText1041" font-family="微软雅黑" text-anchor="middle" font-size="13px" width="62" fill="#323232" font-weight="400" align="middle" anchor="middle" family="微软雅黑" size="13px" weight="400" font-style="" y="10.05" transform="rotate(0)"><tspan id="SvgjsTspan1042" dy="16" x="60"><tspan id="SvgjsTspan1043" style="text-decoration:;">LEFT JOIN</tspan></tspan></text></g></g></svg>