<svg id="SvgjsSvg1044" width="364.0124969482422" height="177" xmlns="http://www.w3.org/2000/svg" version="1.1" xmlns:xlink="http://www.w3.org/1999/xlink" xmlns:svgjs="http://svgjs.com/svgjs"><defs id="SvgjsDefs1045"></defs><g id="SvgjsG1046" transform="translate(25.012496948242188,25)"><path id="SvgjsPath1047" d="M 0 63.5C 0 -21.166666666666668 213 -21.166666666666668 213 63.5C 213 148.16666666666666 0 148.16666666666666 0 63.5Z" stroke="#323232" stroke-width="2" fill-opacity="0.3" fill="#3333ff"></path><g id="SvgjsG1048"><text id="SvgjsText1049" font-family="微软雅黑" text-anchor="middle" font-size="13px" width="0" fill="#323232" font-weight="400" align="middle" anchor="middle" family="微软雅黑" size="13px" weight="400" font-style="" y="53.55" transform="rotate(0)"></text></g></g><g id="SvgjsG1050" transform="translate(113.01249694824219,25)"><path id="SvgjsPath1051" d="M 0 63.5C 0 -21.166666666666668 213 -21.166666666666668 213 63.5C 213 148.16666666666666 0 148.16666666666666 0 63.5Z" stroke="#323232" stroke-width="2" fill-opacity="0.3" fill="#ffff33"></path><g id="SvgjsG1052"><text id="SvgjsText1053" font-family="微软雅黑" text-anchor="middle" font-size="13px" width="0" fill="#323232" font-weight="400" align="middle" anchor="middle" family="微软雅黑" size="13px" weight="400" font-style="" y="53.55" transform="rotate(0)"></text></g></g><g id="SvgjsG1054" transform="translate(113.01249694824219,65.5)"><path id="SvgjsPath1055" d="M 0 0L 120 0L 120 40L 0 40Z" stroke="none" fill="none"></path><g id="SvgjsG1056"><text id="SvgjsText1057" font-family="微软雅黑" text-anchor="middle" font-size="13px" width="74" fill="#323232" font-weight="400" align="middle" anchor="middle" family="微软雅黑" size="13px" weight="400" font-style="" y="10.05" transform="rotate(0)"><tspan id="SvgjsTspan1058" dy="16" x="60"><tspan id="SvgjsTspan1059" style="text-decoration:;">RIGHT JOIN</tspan></tspan></text></g></g><g id="SvgjsG1060" transform="translate(219.0124969482422,65.5)"><path id="SvgjsPath1061" d="M 0 0L 120 0L 120 40L 0 40Z" stroke="none" fill="none"></path><g id="SvgjsG1062"><text id="SvgjsText1063" font-family="微软雅黑" text-anchor="middle" font-size="13px" width="74" fill="#323232" font-weight="400" align="middle" anchor="middle" family="微软雅黑" size="13px" weight="400" font-style="" y="10.05" transform="rotate(0)"><tspan id="SvgjsTspan1064" dy="16" x="60"><tspan id="SvgjsTspan1065" style="text-decoration:;">RIGHT JOIN</tspan></tspan></text></g></g></svg>