<svg id="SvgjsSvg1389" width="814" height="979" xmlns="http://www.w3.org/2000/svg" version="1.1" xmlns:xlink="http://www.w3.org/1999/xlink" xmlns:svgjs="http://svgjs.com/svgjs"><defs id="SvgjsDefs1390"><marker id="SvgjsMarker1425" markerWidth="16" markerHeight="12" refX="16" refY="6" viewBox="0 0 16 12" orient="auto" markerUnits="userSpaceOnUse"><path id="SvgjsPath1426" d="M0,2 L14,6 L0,11 L0,2" fill="#000000" stroke="#000000" stroke-width="2"></path></marker><marker id="SvgjsMarker1429" markerWidth="16" markerHeight="12" refX="0" refY="6" viewBox="0 0 16 12" orient="auto" markerUnits="userSpaceOnUse"><path id="SvgjsPath1430" d="M15,1.5 L2,6 L15,10.5" fill="#323232" stroke="#323232" stroke-width="2"></path></marker><marker id="SvgjsMarker1433" markerWidth="16" markerHeight="12" refX="16" refY="6" viewBox="0 0 16 12" orient="auto" markerUnits="userSpaceOnUse"><path id="SvgjsPath1434" d="M0,2 L14,6 L0,11 L0,2" fill="#000000" stroke="#000000" stroke-width="2"></path></marker><marker id="SvgjsMarker1437" markerWidth="16" markerHeight="12" refX="16" refY="6" viewBox="0 0 16 12" orient="auto" markerUnits="userSpaceOnUse"><path id="SvgjsPath1438" d="M0,2 L14,6 L0,11 L0,2" fill="#323232" stroke="#323232" stroke-width="2"></path></marker><marker id="SvgjsMarker1441" markerWidth="16" markerHeight="12" refX="16" refY="6" viewBox="0 0 16 12" orient="auto" markerUnits="userSpaceOnUse"><path id="SvgjsPath1442" d="M0,2 L14,6 L0,11 L0,2" fill="#323232" stroke="#323232" stroke-width="2"></path></marker><marker id="SvgjsMarker1475" markerWidth="16" markerHeight="12" refX="16" refY="6" viewBox="0 0 16 12" orient="auto" markerUnits="userSpaceOnUse"><path id="SvgjsPath1476" d="M0,2 L14,6 L0,11 L0,2" fill="#000000" stroke="#000000" stroke-width="2"></path></marker><marker id="SvgjsMarker1479" markerWidth="16" markerHeight="12" refX="16" refY="6" viewBox="0 0 16 12" orient="auto" markerUnits="userSpaceOnUse"><path id="SvgjsPath1480" d="M0,2 L14,6 L0,11 L0,2" fill="#323232" stroke="#323232" stroke-width="2"></path></marker><marker id="SvgjsMarker1483" markerWidth="16" markerHeight="12" refX="16" refY="6" viewBox="0 0 16 12" orient="auto" markerUnits="userSpaceOnUse"><path id="SvgjsPath1484" d="M0,2 L14,6 L0,11 L0,2" fill="#323232" stroke="#323232" stroke-width="2"></path></marker><marker id="SvgjsMarker1487" markerWidth="16" markerHeight="12" refX="16" refY="6" viewBox="0 0 16 12" orient="auto" markerUnits="userSpaceOnUse"><path id="SvgjsPath1488" d="M0,2 L14,6 L0,11 L0,2" fill="#323232" stroke="#323232" stroke-width="2"></path></marker><marker id="SvgjsMarker1491" markerWidth="16" markerHeight="12" refX="16" refY="6" viewBox="0 0 16 12" orient="auto" markerUnits="userSpaceOnUse"><path id="SvgjsPath1492" d="M0,2 L14,6 L0,11 L0,2" fill="#000000" stroke="#000000" stroke-width="2"></path></marker><marker id="SvgjsMarker1495" markerWidth="16" markerHeight="12" refX="16" refY="6" viewBox="0 0 16 12" orient="auto" markerUnits="userSpaceOnUse"><path id="SvgjsPath1496" d="M0,2 L14,6 L0,11 L0,2" fill="#000000" stroke="#000000" stroke-width="2"></path></marker><marker id="SvgjsMarker1499" markerWidth="16" markerHeight="12" refX="16" refY="6" viewBox="0 0 16 12" orient="auto" markerUnits="userSpaceOnUse"><path id="SvgjsPath1500" d="M0,2 L14,6 L0,11 L0,2" fill="#000000" stroke="#000000" stroke-width="2"></path></marker><marker id="SvgjsMarker1503" markerWidth="16" markerHeight="12" refX="16" refY="6" viewBox="0 0 16 12" orient="auto" markerUnits="userSpaceOnUse"><path id="SvgjsPath1504" d="M0,2 L14,6 L0,11 L0,2" fill="#323232" stroke="#323232" stroke-width="2"></path></marker><marker id="SvgjsMarker1507" markerWidth="16" markerHeight="12" refX="16" refY="6" viewBox="0 0 16 12" orient="auto" markerUnits="userSpaceOnUse"><path id="SvgjsPath1508" d="M0,2 L14,6 L0,11 L0,2" fill="#323232" stroke="#323232" stroke-width="2"></path></marker><marker id="SvgjsMarker1527" markerWidth="16" markerHeight="12" refX="16" refY="6" viewBox="0 0 16 12" orient="auto" markerUnits="userSpaceOnUse"><path id="SvgjsPath1528" d="M0,2 L14,6 L0,11 L0,2" fill="#323232" stroke="#323232" stroke-width="2"></path></marker><marker id="SvgjsMarker1531" markerWidth="16" markerHeight="12" refX="16" refY="6" viewBox="0 0 16 12" orient="auto" markerUnits="userSpaceOnUse"><path id="SvgjsPath1532" d="M0,2 L14,6 L0,11 L0,2" fill="#323232" stroke="#323232" stroke-width="2"></path></marker><marker id="SvgjsMarker1535" markerWidth="16" markerHeight="12" refX="16" refY="6" viewBox="0 0 16 12" orient="auto" markerUnits="userSpaceOnUse"><path id="SvgjsPath1536" d="M0,2 L14,6 L0,11 L0,2" fill="#000000" stroke="#000000" stroke-width="2"></path></marker><marker id="SvgjsMarker1539" markerWidth="16" markerHeight="12" refX="16" refY="6" viewBox="0 0 16 12" orient="auto" markerUnits="userSpaceOnUse"><path id="SvgjsPath1540" d="M0,2 L14,6 L0,11 L0,2" fill="#323232" stroke="#323232" stroke-width="2"></path></marker><marker id="SvgjsMarker1543" markerWidth="16" markerHeight="12" refX="16" refY="6" viewBox="0 0 16 12" orient="auto" markerUnits="userSpaceOnUse"><path id="SvgjsPath1544" d="M0,2 L14,6 L0,11 L0,2" fill="#323232" stroke="#323232" stroke-width="2"></path></marker><marker id="SvgjsMarker1586" markerWidth="16" markerHeight="12" refX="16" refY="6" viewBox="0 0 16 12" orient="auto" markerUnits="userSpaceOnUse"><path id="SvgjsPath1587" d="M0,2 L14,6 L0,11 L0,2" fill="#323232" stroke="#323232" stroke-width="2"></path></marker></defs><g id="SvgjsG1391" transform="translate(25.001388549804688,25.01178741455078)"><path id="SvgjsPath1392" d="M 0 0L 763.6666641235352 0L 763.6666641235352 928.7778015136719L 0 928.7778015136719Z" stroke="#e5e5e5" stroke-width="2" fill-opacity="1" fill="#ffffff"></path><g id="SvgjsG1393"><text id="SvgjsText1394" font-family="微软雅黑" text-anchor="middle" font-size="13px" width="0" fill="#323232" font-weight="400" align="middle" anchor="middle" family="微软雅黑" size="13px" weight="400" font-style="" y="454.43890075683595" transform="rotate(0)"></text></g></g><g id="SvgjsG1395" transform="translate(25.001388549804688,681.7895889282227)"><path id="SvgjsPath1396" d="M 0 0L 443 0L 443 272L 0 272Z" stroke-dasharray="10,6,3,6" stroke="#ffffff" stroke-width="1" fill-opacity="1" fill="#b8b8b8"></path><g id="SvgjsG1397"><text id="SvgjsText1398" font-family="微软雅黑" text-anchor="middle" font-size="13px" width="0" fill="#323232" font-weight="400" align="middle" anchor="middle" family="微软雅黑" size="13px" weight="400" font-style="" y="126.05" transform="rotate(0)"></text></g></g><g id="SvgjsG1399" transform="translate(293.0013885498047,156.90068817138672)"><path id="SvgjsPath1400" d="M 10.666666666666666 0L 86.33333333333333 0C 100.55555555555556 0 100.55555555555556 32 86.33333333333333 32L 10.666666666666666 32C -3.5555555555555554 32 -3.5555555555555554 0 10.666666666666666 0Z" stroke="#323232" stroke-width="2" fill-opacity="1" fill="#ffffff"></path><g id="SvgjsG1401"><text id="SvgjsText1402" font-family="微软雅黑" text-anchor="middle" font-size="13px" width="50" fill="#323232" font-weight="400" align="middle" anchor="middle" family="微软雅黑" size="13px" weight="400" font-style="" y="6.05" transform="rotate(0)"><tspan id="SvgjsTspan1403" dy="16" x="48.5"><tspan id="SvgjsTspan1404" style="text-decoration:;">CLOSED</tspan></tspan></text></g></g><g id="SvgjsG1405" transform="translate(293.0013885498047,269.9006881713867)"><path id="SvgjsPath1406" d="M 9.333333333333334 0L 87.66666666666667 0C 100.11111111111111 0 100.11111111111111 28 87.66666666666667 28L 9.333333333333334 28C -3.111111111111111 28 -3.111111111111111 0 9.333333333333334 0Z" stroke="#323232" stroke-width="2" fill-opacity="1" fill="#ffffff"></path><g id="SvgjsG1407"><text id="SvgjsText1408" font-family="微软雅黑" text-anchor="middle" font-size="13px" width="43" fill="#323232" font-weight="400" align="middle" anchor="middle" family="微软雅黑" size="13px" weight="400" font-style="" y="4.05" transform="rotate(0)"><tspan id="SvgjsTspan1409" dy="16" x="48.5"><tspan id="SvgjsTspan1410" style="text-decoration:;">LISTEN</tspan></tspan></text></g></g><g id="SvgjsG1411" transform="translate(517.0013885498047,410.9006881713867)"><path id="SvgjsPath1412" d="M 9.333333333333334 0L 87.66666666666667 0C 100.11111111111111 0 100.11111111111111 28 87.66666666666667 28L 9.333333333333334 28C -3.111111111111111 28 -3.111111111111111 0 9.333333333333334 0Z" stroke="#323232" stroke-width="2" fill-opacity="1" fill="#ffffff"></path><g id="SvgjsG1413"><text id="SvgjsText1414" font-family="微软雅黑" text-anchor="middle" font-size="13px" width="65" fill="#323232" font-weight="400" align="middle" anchor="middle" family="微软雅黑" size="13px" weight="400" font-style="" y="4.05" transform="rotate(0)"><tspan id="SvgjsTspan1415" dy="16" x="48.5"><tspan id="SvgjsTspan1416" style="text-decoration:;">SYN-SENT</tspan></tspan></text></g></g><g id="SvgjsG1417" transform="translate(74.00138854980469,410.9006881713867)"><path id="SvgjsPath1418" d="M 9.333333333333334 0L 87.66666666666667 0C 100.11111111111111 0 100.11111111111111 28 87.66666666666667 28L 9.333333333333334 28C -3.111111111111111 28 -3.111111111111111 0 9.333333333333334 0Z" stroke="#323232" stroke-width="2" fill-opacity="1" fill="#ffffff"></path><g id="SvgjsG1419"><text id="SvgjsText1420" font-family="微软雅黑" text-anchor="middle" font-size="13px" width="68" fill="#323232" font-weight="400" align="middle" anchor="middle" family="微软雅黑" size="13px" weight="400" font-style="" y="4.05" transform="rotate(0)"><tspan id="SvgjsTspan1421" dy="16" x="48.5"><tspan id="SvgjsTspan1422" style="text-decoration:;">SYN-RCVD</tspan></tspan></text></g></g><g id="SvgjsG1423"><path id="SvgjsPath1424" d="M517.0013885498047 424.9006881713867L344.0013885498047 424.9006881713867L344.0013885498047 424.9006881713867L171.0013885498047 424.9006881713867" stroke="#000000" stroke-width="2" fill="none" marker-end="url(#SvgjsMarker1425)"></path></g><g id="SvgjsG1427"><path id="SvgjsPath1428" d="M548.0013885498047 410.9006881713867L389.43023811105854 297.83651039891083" stroke="#323232" stroke-width="2" fill="none" marker-start="url(#SvgjsMarker1429)"></path></g><g id="SvgjsG1431"><path id="SvgjsPath1432" d="M390.0013885498047 172.90068817138672L565.5013885498047 410.9006881713867" stroke="#000000" stroke-width="2" fill="none" marker-end="url(#SvgjsMarker1433)"></path></g><g id="SvgjsG1435"><path id="SvgjsPath1436" d="M341.5013885498047 188.90068817138672L341.5013885498047 229.40068817138672L341.5013885498047 229.40068817138672L341.5013885498047 269.9006881713867" stroke-dasharray="3,3" stroke="#323232" stroke-width="2" fill="none" marker-end="url(#SvgjsMarker1437)"></path></g><g id="SvgjsG1439"><path id="SvgjsPath1440" d="M293.0013885498047 283.9006881713867L111.23750305175781 411.36249589920044" stroke-dasharray="3,3" stroke="#323232" stroke-width="2" fill="none" marker-end="url(#SvgjsMarker1441)"></path></g><g id="SvgjsG1443" transform="translate(283.2513885498047,565.9006881713867)"><path id="SvgjsPath1444" d="M 14 0L 102.5 0C 121.16666666666667 0 121.16666666666667 42 102.5 42L 14 42C -4.666666666666667 42 -4.666666666666667 0 14 0Z" stroke="#323232" stroke-width="2" fill-opacity="1" fill="#ffffff"></path><g id="SvgjsG1445"><text id="SvgjsText1446" font-family="微软雅黑" text-anchor="middle" font-size="13px" width="85" fill="#323232" font-weight="400" align="middle" anchor="middle" family="微软雅黑" size="13px" weight="400" font-style="" y="11.05" transform="rotate(0)"><tspan id="SvgjsTspan1447" dy="16" x="58.5"><tspan id="SvgjsTspan1448" style="text-decoration:;">ESTABLISHED</tspan></tspan></text></g></g><g id="SvgjsG1449" transform="translate(54.00138854980469,711.7895889282227)"><path id="SvgjsPath1450" d="M 12.666666666666666 0L 125.33333333333333 0C 142.22222222222223 0 142.22222222222223 38 125.33333333333333 38L 12.666666666666666 38C -4.222222222222222 38 -4.222222222222222 0 12.666666666666666 0Z" stroke="#323232" stroke-width="2" fill-opacity="1" fill="#ffffff"></path><g id="SvgjsG1451"><text id="SvgjsText1452" font-family="微软雅黑" text-anchor="middle" font-size="13px" width="74" fill="#323232" font-weight="400" align="middle" anchor="middle" family="微软雅黑" size="13px" weight="400" font-style="" y="9.05" transform="rotate(0)"><tspan id="SvgjsTspan1453" dy="16" x="69"><tspan id="SvgjsTspan1454" style="text-decoration:;">FIN-WAIT-1</tspan></tspan></text></g></g><g id="SvgjsG1455" transform="translate(53.50138854980469,870.7895889282227)"><path id="SvgjsPath1456" d="M 12.666666666666666 0L 125.33333333333333 0C 142.22222222222223 0 142.22222222222223 38 125.33333333333333 38L 12.666666666666666 38C -4.222222222222222 38 -4.222222222222222 0 12.666666666666666 0Z" stroke="#323232" stroke-width="2" fill-opacity="1" fill="#ffffff"></path><g id="SvgjsG1457"><text id="SvgjsText1458" font-family="微软雅黑" text-anchor="middle" font-size="13px" width="74" fill="#323232" font-weight="400" align="middle" anchor="middle" family="微软雅黑" size="13px" weight="400" font-style="" y="9.05" transform="rotate(0)"><tspan id="SvgjsTspan1459" dy="16" x="69"><tspan id="SvgjsTspan1460" style="text-decoration:;">FIN-WAIT-2</tspan></tspan></text></g></g><g id="SvgjsG1461" transform="translate(310.0013885498047,711.7895889282227)"><path id="SvgjsPath1462" d="M 12.666666666666666 0L 125.33333333333333 0C 142.22222222222223 0 142.22222222222223 38 125.33333333333333 38L 12.666666666666666 38C -4.222222222222222 38 -4.222222222222222 0 12.666666666666666 0Z" stroke="#323232" stroke-width="2" fill-opacity="1" fill="#ffffff"></path><g id="SvgjsG1463"><text id="SvgjsText1464" font-family="微软雅黑" text-anchor="middle" font-size="13px" width="57" fill="#323232" font-weight="400" align="middle" anchor="middle" family="微软雅黑" size="13px" weight="400" font-style="" y="9.05" transform="rotate(0)"><tspan id="SvgjsTspan1465" dy="16" x="69"><tspan id="SvgjsTspan1466" style="text-decoration:;">CLOSING</tspan></tspan></text></g></g><g id="SvgjsG1467" transform="translate(310.9388885498047,870.7895889282227)"><path id="SvgjsPath1468" d="M 12.666666666666666 0L 125.33333333333333 0C 142.22222222222223 0 142.22222222222223 38 125.33333333333333 38L 12.666666666666666 38C -4.222222222222222 38 -4.222222222222222 0 12.666666666666666 0Z" stroke="#323232" stroke-width="2" fill-opacity="1" fill="#ffffff"></path><g id="SvgjsG1469"><text id="SvgjsText1470" font-family="微软雅黑" text-anchor="middle" font-size="13px" width="70" fill="#323232" font-weight="400" align="middle" anchor="middle" family="微软雅黑" size="13px" weight="400" font-style="" y="9.05" transform="rotate(0)"><tspan id="SvgjsTspan1471" dy="16" x="69"><tspan id="SvgjsTspan1472" style="text-decoration:;">TIME-WAIT</tspan></tspan></text></g></g><g id="SvgjsG1473"><path id="SvgjsPath1474" d="M191.5013885498047 889.7895889282227L310.9388885498047 889.7895889282227" stroke-dasharray="10,5,3,5" stroke="#000000" stroke-width="2" fill="none" marker-end="url(#SvgjsMarker1475)"></path></g><g id="SvgjsG1477"><path id="SvgjsPath1478" d="M154.33470153808594 749.3451461791992L314.2045465174096 871.0436092831287" stroke-dasharray="10,5,3,5" stroke="#323232" stroke-width="2" fill="none" marker-end="url(#SvgjsMarker1479)"></path></g><g id="SvgjsG1481"><path id="SvgjsPath1482" d="M192.0013885498047 730.7895889282227L310.0013885498047 730.7895889282227" stroke-dasharray="10,5,3,5" stroke="#323232" stroke-width="2" fill="none" marker-end="url(#SvgjsMarker1483)"></path></g><g id="SvgjsG1485"><path id="SvgjsPath1486" d="M379.0013885498047 749.7895889282227L379.9388885498047 870.7895889282227" stroke-dasharray="10,5,3,5" stroke="#323232" stroke-width="2" fill="none" marker-end="url(#SvgjsMarker1487)"></path></g><g id="SvgjsG1489"><path id="SvgjsPath1490" d="M123.00138854980469 749.7895889282227L122.50138854980469 870.7895889282227" stroke-dasharray="10,5,3,5" stroke="#000000" stroke-width="2" fill="none" marker-end="url(#SvgjsMarker1491)"></path></g><g id="SvgjsG1493"><path id="SvgjsPath1494" d="M341.5013885498047 607.9006881713867L123.00138854980469 711.7895889282227" stroke-dasharray="10,5,3,5" stroke="#000000" stroke-width="2" fill="none" marker-end="url(#SvgjsMarker1495)"></path></g><g id="SvgjsG1497"><path id="SvgjsPath1498" d="M565.5013885498047 438.9006881713867L393.89027404785156 566.4562473297119" stroke="#000000" stroke-width="2" fill="none" marker-end="url(#SvgjsMarker1499)"></path></g><g id="SvgjsG1501"><path id="SvgjsPath1502" d="M122.50138854980469 438.9006881713867L123.00138854980469 711.7895889282227" stroke-dasharray="8,5" stroke="#323232" stroke-width="2" fill="none" marker-end="url(#SvgjsMarker1503)"></path></g><g id="SvgjsG1505"><path id="SvgjsPath1506" d="M165.78048866547368 438.44736870033194L285.89027404785156 566.6523997524185" stroke-dasharray="3,3" stroke="#323232" stroke-width="2" fill="none" marker-end="url(#SvgjsMarker1507)"></path></g><g id="SvgjsG1509" transform="translate(507.0013885498047,541.3451461791992)"><path id="SvgjsPath1510" d="M 0 0L 117 0L 117 233L 0 233Z" stroke-dasharray="10,6,3,6" stroke="#b8b8b8" stroke-width="1" fill-opacity="1" fill="#cfcfcf"></path><g id="SvgjsG1511"><text id="SvgjsText1512" font-family="微软雅黑" text-anchor="middle" font-size="13px" width="0" fill="#323232" font-weight="400" align="middle" anchor="middle" family="微软雅黑" size="13px" weight="400" font-style="" y="106.55" transform="rotate(0)"></text></g></g><g id="SvgjsG1513" transform="translate(513.5013885498047,573.70622416905)"><path id="SvgjsPath1514" d="M 9.72222900390625 0L 94.27777099609375 0C 107.24074300130208 0 107.24074300130208 29.16668701171875 94.27777099609375 29.16668701171875L 9.72222900390625 29.16668701171875C -3.2407430013020835 29.16668701171875 -3.2407430013020835 0 9.72222900390625 0Z" stroke="#323232" stroke-width="2" fill-opacity="1" fill="#ffffff"></path><g id="SvgjsG1515"><text id="SvgjsText1516" font-family="微软雅黑" text-anchor="middle" font-size="13px" width="80" fill="#323232" font-weight="400" align="middle" anchor="middle" family="微软雅黑" size="13px" weight="400" font-style="" y="4.633343505859375" transform="rotate(0)"><tspan id="SvgjsTspan1517" dy="16" x="52"><tspan id="SvgjsTspan1518" style="text-decoration:;">CLOSE-WAIT</tspan></tspan></text></g></g><g id="SvgjsG1519" transform="translate(513.5013885498047,711.7895889282227)"><path id="SvgjsPath1520" d="M 9.72222900390625 0L 94.27777099609375 0C 107.24074300130208 0 107.24074300130208 29.16668701171875 94.27777099609375 29.16668701171875L 9.72222900390625 29.16668701171875C -3.2407430013020835 29.16668701171875 -3.2407430013020835 0 9.72222900390625 0Z" stroke="#323232" stroke-width="2" fill-opacity="1" fill="#ffffff"></path><g id="SvgjsG1521"><text id="SvgjsText1522" font-family="微软雅黑" text-anchor="middle" font-size="13px" width="62" fill="#323232" font-weight="400" align="middle" anchor="middle" family="微软雅黑" size="13px" weight="400" font-style="" y="4.633343505859375" transform="rotate(0)"><tspan id="SvgjsTspan1523" dy="16" x="52"><tspan id="SvgjsTspan1524" style="text-decoration:;">LAST-ACK</tspan></tspan></text></g></g><g id="SvgjsG1525"><path id="SvgjsPath1526" d="M399.7513885498047 586.9006881713867L513.5013885498047 588.2895676749093" stroke-dasharray="8,5" stroke="#323232" stroke-width="2" fill="none" marker-end="url(#SvgjsMarker1527)"></path></g><g id="SvgjsG1529"><path id="SvgjsPath1530" d="M565.5013885498047 602.8729111807687L565.5013885498047 711.7895889282227" stroke-dasharray="8,5" stroke="#323232" stroke-width="2" fill="none" marker-end="url(#SvgjsMarker1531)"></path></g><g id="SvgjsG1533"><path id="SvgjsPath1534" d="M448.9388885498047 889.7895889282227L765.9388885498047 889.7895889282227L765.9388885498047 172.90068817138672L390.0013885498047 172.90068817138672" stroke="#000000" stroke-width="2" fill="none" marker-end="url(#SvgjsMarker1535)"></path></g><g id="SvgjsG1537"><path id="SvgjsPath1538" d="M617.5013885498047 726.372932434082L691.0444412231445 726.372932434082L691.0444412231445 726.372932434082L764.5874938964844 726.372932434082" stroke-dasharray="8,5" stroke="#323232" stroke-width="2" fill="none" marker-end="url(#SvgjsMarker1539)"></path></g><g id="SvgjsG1541"><path id="SvgjsPath1542" d="M614.0013885498047 424.9006881713867L689.2944412231445 424.9006881713867L689.2944412231445 424.9006881713867L764.5874938964844 424.9006881713867" stroke="#323232" stroke-width="2" fill="none" marker-end="url(#SvgjsMarker1543)"></path></g><g id="SvgjsG1545" transform="translate(293.0013885498047,121.90068817138672)"><path id="SvgjsPath1546" d="M 0 0L 97 0L 0 0M 0 35L 97 35L 0 35Z" stroke="none" fill-opacity="1" fill="#ffffff"></path><path id="SvgjsPath1547" d="M 0 0L 97 0L 97 35L 0 35L 0 0Z" stroke="none" fill="none"></path><g id="SvgjsG1548"><text id="SvgjsText1549" font-family="微软雅黑" text-anchor="middle" font-size="13px" width="26" fill="#323232" font-weight="400" align="middle" anchor="middle" family="微软雅黑" size="13px" weight="400" font-style="" y="7.55" transform="rotate(0)"><tspan id="SvgjsTspan1550" dy="16" x="48.5"><tspan id="SvgjsTspan1551" style="text-decoration:;">起点</tspan></tspan></text></g></g><g id="SvgjsG1552" transform="translate(310.0013885498047,199.90068817138672)"><path id="SvgjsPath1553" d="M 0 0L 100 0L 0 0M 0 70L 100 70L 0 70Z" stroke="none" fill-opacity="1" fill="#ffffff"></path><path id="SvgjsPath1554" d="M 0 0L 100 0L 100 70L 0 70L 0 0Z" stroke="none" fill="none"></path><g id="SvgjsG1555"><text id="SvgjsText1556" font-family="微软雅黑" text-anchor="middle" font-size="13px" width="26" fill="#323232" font-weight="400" align="middle" anchor="middle" family="微软雅黑" size="13px" weight="400" font-style="" y="25.05" transform="rotate(0)"><tspan id="SvgjsTspan1557" dy="16" x="50"><tspan id="SvgjsTspan1558" style="text-decoration:;">关闭</tspan></tspan></text></g></g><g id="SvgjsG1559" transform="translate(234.0013885498047,199.90068817138672)"><path id="SvgjsPath1560" d="M 0 0L 100 0L 0 0M 0 70L 100 70L 0 70Z" stroke="none" fill-opacity="1" fill="#ffffff"></path><path id="SvgjsPath1561" d="M 0 0L 100 0L 100 70L 0 70L 0 0Z" stroke="none" fill="none"></path><g id="SvgjsG1562"><text id="SvgjsText1563" font-family="微软雅黑" text-anchor="middle" font-size="13px" width="52" fill="#323232" font-weight="400" align="middle" anchor="middle" family="微软雅黑" size="13px" weight="400" font-style="" y="25.05" transform="rotate(0)"><tspan id="SvgjsTspan1564" dy="16" x="50"><tspan id="SvgjsTspan1565" style="text-decoration:;">被动打开</tspan></tspan></text></g></g><g id="SvgjsG1566" transform="translate(433.0013885498047,207.90068817138672)"><path id="SvgjsPath1567" d="M 0 0L 100 0L 0 0M 0 70L 100 70L 0 70Z" stroke="none" fill-opacity="1" fill="#ffffff"></path><path id="SvgjsPath1568" d="M 0 0L 100 0L 100 70L 0 70L 0 0Z" stroke="none" fill="none"></path><g id="SvgjsG1569"><text id="SvgjsText1570" font-family="微软雅黑" text-anchor="middle" font-size="13px" width="52" fill="#323232" font-weight="400" align="middle" anchor="middle" family="微软雅黑" size="13px" weight="400" font-style="" y="17.05" transform="rotate(0)"><tspan id="SvgjsTspan1571" dy="16" x="50"><tspan id="SvgjsTspan1572" style="text-decoration:;">主动打开</tspan></tspan><tspan id="SvgjsTspan1573" dy="16" x="50"><tspan id="SvgjsTspan1574" style="text-decoration:;">发送SYN</tspan></tspan></text></g></g><g id="SvgjsG1575" transform="translate(95.22360229492188,282.9006881713867)"><path id="SvgjsPath1576" d="M 0 0L 142 0L 0 0M 0 76L 142 76L 0 76Z" stroke="none" fill-opacity="1" fill="#ffffff"></path><path id="SvgjsPath1577" d="M 0 0L 142 0L 142 76L 0 76L 0 0Z" stroke="none" fill="none"></path><g id="SvgjsG1578"><text id="SvgjsText1579" font-family="微软雅黑" text-anchor="middle" font-size="13px" width="90" fill="#323232" font-weight="400" align="middle" anchor="middle" family="微软雅黑" size="13px" weight="400" font-style="" y="20.05" transform="rotate(0)"><tspan id="SvgjsTspan1580" dy="16" x="71"><tspan id="SvgjsTspan1581" style="text-decoration:;">收到SYN</tspan></tspan><tspan id="SvgjsTspan1582" dy="16" x="71"><tspan id="SvgjsTspan1583" style="text-decoration:;">发送SYN，ACK</tspan></tspan></text></g></g><g id="SvgjsG1584"><path id="SvgjsPath1585" d="M122.50138854980469 410.9006881713867L293.4392352720246 296.36497860094255" stroke="#323232" stroke-width="2" fill="none" marker-end="url(#SvgjsMarker1586)"></path></g><g id="SvgjsG1588" transform="translate(206.0013885498047,314.9006881713867)"><path id="SvgjsPath1589" d="M 0 0L 100 0L 0 0M 0 70L 100 70L 0 70Z" stroke="none" fill-opacity="1" fill="#ffffff"></path><path id="SvgjsPath1590" d="M 0 0L 100 0L 100 70L 0 70L 0 0Z" stroke="none" fill="none"></path><g id="SvgjsG1591"><text id="SvgjsText1592" font-family="微软雅黑" text-anchor="middle" font-size="13px" width="50" fill="#323232" font-weight="400" align="middle" anchor="middle" family="微软雅黑" size="13px" weight="400" font-style="" y="25.05" transform="rotate(0)"><tspan id="SvgjsTspan1593" dy="16" x="50"><tspan id="SvgjsTspan1594" style="text-decoration:;">收到RST</tspan></tspan></text></g></g><g id="SvgjsG1595" transform="translate(291.5013885498047,297.9006881713867)"><path id="SvgjsPath1596" d="M 0 0L 100 0L 0 0M 0 24L 100 24L 0 24Z" stroke="none" fill-opacity="1" fill="#ffffff"></path><path id="SvgjsPath1597" d="M 0 0L 100 0L 100 24L 0 24L 0 0Z" stroke="none" fill="none"></path><g id="SvgjsG1598"><text id="SvgjsText1599" font-family="微软雅黑" text-anchor="middle" font-size="13px" width="52" fill="#323232" font-weight="400" align="middle" anchor="middle" family="微软雅黑" size="13px" weight="400" font-style="" y="2.05" transform="rotate(0)"><tspan id="SvgjsTspan1600" dy="16" x="50"><tspan id="SvgjsTspan1601" style="text-decoration:;">被动打开</tspan></tspan></text></g></g><g id="SvgjsG1602" transform="translate(379.55694580078125,321.9006881713867)"><path id="SvgjsPath1603" d="M 0 0L 100 0L 0 0M 0 70L 100 70L 0 70Z" stroke="none" fill-opacity="1" fill="#ffffff"></path><path id="SvgjsPath1604" d="M 0 0L 100 0L 100 70L 0 70L 0 0Z" stroke="none" fill="none"></path><g id="SvgjsG1605"><text id="SvgjsText1606" font-family="微软雅黑" text-anchor="middle" font-size="13px" width="52" fill="#323232" font-weight="400" align="middle" anchor="middle" family="微软雅黑" size="13px" weight="400" font-style="" y="25.05" transform="rotate(0)"><tspan id="SvgjsTspan1607" dy="16" x="50"><tspan id="SvgjsTspan1608" style="text-decoration:;">发送SYN</tspan></tspan></text></g></g><g id="SvgjsG1609" transform="translate(259.0013885498047,396.4006881713867)"><path id="SvgjsPath1610" d="M 0 0L 189 0L 0 0M 0 57L 189 57L 0 57Z" stroke="none" fill-opacity="1" fill="#ffffff"></path><path id="SvgjsPath1611" d="M 0 0L 189 0L 189 57L 0 57L 0 0Z" stroke="none" fill="none"></path><g id="SvgjsG1612"><text id="SvgjsText1613" font-family="微软雅黑" text-anchor="middle" font-size="13px" width="156" fill="#323232" font-weight="400" align="middle" anchor="middle" family="微软雅黑" size="13px" weight="400" font-style="" y="2.55" transform="rotate(0)"><tspan id="SvgjsTspan1614" dy="16" x="94.5"><tspan id="SvgjsTspan1615" style="text-decoration:;">收到SYN，发送SYN，ACK</tspan></tspan><tspan id="SvgjsTspan1616" dy="16" x="94.5"><tspan id="SvgjsTspan1617" style="text-decoration:;"> </tspan></tspan><tspan id="SvgjsTspan1618" dy="16" x="94.5"><tspan id="SvgjsTspan1619" style="text-decoration:;">同时打开</tspan></tspan></text></g></g><g id="SvgjsG1620" transform="translate(191.5013885498047,448.9006881713867)"><path id="SvgjsPath1621" d="M 0 0L 100 0L 0 0M 0 70L 100 70L 0 70Z" stroke="none" fill-opacity="1" fill="#ffffff"></path><path id="SvgjsPath1622" d="M 0 0L 100 0L 100 70L 0 70L 0 0Z" stroke="none" fill="none"></path><g id="SvgjsG1623"><text id="SvgjsText1624" font-family="微软雅黑" text-anchor="middle" font-size="13px" width="52" fill="#323232" font-weight="400" align="middle" anchor="middle" family="微软雅黑" size="13px" weight="400" font-style="" y="25.05" transform="rotate(0)"><tspan id="SvgjsTspan1625" dy="16" x="50"><tspan id="SvgjsTspan1626" style="text-decoration:;">收到ACK</tspan></tspan></text></g></g><g id="SvgjsG1627" transform="translate(291.5013885498047,532.4562473297119)"><path id="SvgjsPath1628" d="M 0 0L 100 0L 0 0M 0 31L 100 31L 0 31Z" stroke="none" fill-opacity="1" fill="#ffffff"></path><path id="SvgjsPath1629" d="M 0 0L 100 0L 100 31L 0 31L 0 0Z" stroke="none" fill="none"></path><g id="SvgjsG1630"><text id="SvgjsText1631" font-family="微软雅黑" text-anchor="middle" font-size="13px" width="78" fill="#323232" font-weight="400" align="middle" anchor="middle" family="微软雅黑" size="13px" weight="400" font-style="" y="5.55" transform="rotate(0)"><tspan id="SvgjsTspan1632" dy="16" x="50"><tspan id="SvgjsTspan1633" style="text-decoration:;">数据传输阶段</tspan></tspan></text></g></g><g id="SvgjsG1634" transform="translate(399.7513885498047,532.4562473297119)"><path id="SvgjsPath1635" d="M 0 0L 100 0L 0 0M 0 70L 100 70L 0 70Z" stroke="none" fill-opacity="1" fill="#ffffff"></path><path id="SvgjsPath1636" d="M 0 0L 100 0L 100 70L 0 70L 0 0Z" stroke="none" fill="none"></path><g id="SvgjsG1637"><text id="SvgjsText1638" font-family="微软雅黑" text-anchor="middle" font-size="13px" width="52" fill="#323232" font-weight="400" align="middle" anchor="middle" family="微软雅黑" size="13px" weight="400" font-style="" y="17.05" transform="rotate(0)"><tspan id="SvgjsTspan1639" dy="16" x="50"><tspan id="SvgjsTspan1640" style="text-decoration:;">收到FIN</tspan></tspan><tspan id="SvgjsTspan1641" dy="16" x="50"><tspan id="SvgjsTspan1642" style="text-decoration:;">发送ACK</tspan></tspan></text></g></g><g id="SvgjsG1643" transform="translate(310.7513885498047,644.2340450286865)"><path id="SvgjsPath1644" d="M 0 0L 116.5 0L 116.5 27.22220230102539L 0 27.22220230102539Z" stroke="#323232" stroke-width="2" fill-opacity="1" fill="#ffffff"></path><g id="SvgjsG1645"><text id="SvgjsText1646" font-family="微软雅黑" text-anchor="middle" font-size="13px" width="52" fill="#323232" font-weight="400" align="middle" anchor="middle" family="微软雅黑" size="13px" weight="400" font-style="" y="3.661101150512695" transform="rotate(0)"><tspan id="SvgjsTspan1647" dy="16" x="58.5"><tspan id="SvgjsTspan1648" style="text-decoration:;">主动关闭</tspan></tspan></text></g></g><g id="SvgjsG1649" transform="translate(319.0013885498047,661.9006881713867)"><path id="SvgjsPath1650" d="M 0 0L 100 0L 0 0M 0 70L 100 70L 0 70Z" stroke="none" fill-opacity="1" fill="#ffffff"></path><path id="SvgjsPath1651" d="M 0 0L 100 0L 100 70L 0 70L 0 0Z" stroke="none" fill="none"></path><g id="SvgjsG1652"><text id="SvgjsText1653" font-family="微软雅黑" text-anchor="middle" font-size="13px" width="52" fill="#323232" font-weight="400" align="middle" anchor="middle" family="微软雅黑" size="13px" weight="400" font-style="" y="25.05" transform="rotate(0)"><tspan id="SvgjsTspan1654" dy="16" x="50"><tspan id="SvgjsTspan1655" style="text-decoration:;">同时关闭</tspan></tspan></text></g></g><g id="SvgjsG1656" transform="translate(196.5013885498047,681.7895889282227)"><path id="SvgjsPath1657" d="M 0 0L 100 0L 0 0M 0 57L 100 57L 0 57Z" stroke="none" fill-opacity="1" fill="#ffffff"></path><path id="SvgjsPath1658" d="M 0 0L 100 0L 100 57L 0 57L 0 0Z" stroke="none" fill="none"></path><g id="SvgjsG1659"><text id="SvgjsText1660" font-family="微软雅黑" text-anchor="middle" font-size="13px" width="52" fill="#323232" font-weight="400" align="middle" anchor="middle" family="微软雅黑" size="13px" weight="400" font-style="" y="10.55" transform="rotate(0)"><tspan id="SvgjsTspan1661" dy="16" x="50"><tspan id="SvgjsTspan1662" style="text-decoration:;">收到FIN</tspan></tspan><tspan id="SvgjsTspan1663" dy="16" x="50"><tspan id="SvgjsTspan1664" style="text-decoration:;">发送ACK</tspan></tspan></text></g></g><g id="SvgjsG1665" transform="translate(103.00138854980469,777.9006881713867)"><path id="SvgjsPath1666" d="M 0 0L 100 0L 0 0M 0 70L 100 70L 0 70Z" stroke="none" fill-opacity="1" fill="#ffffff"></path><path id="SvgjsPath1667" d="M 0 0L 100 0L 100 70L 0 70L 0 0Z" stroke="none" fill="none"></path><g id="SvgjsG1668"><text id="SvgjsText1669" font-family="微软雅黑" text-anchor="middle" font-size="13px" width="52" fill="#323232" font-weight="400" align="middle" anchor="middle" family="微软雅黑" size="13px" weight="400" font-style="" y="25.05" transform="rotate(0)"><tspan id="SvgjsTspan1670" dy="16" x="50"><tspan id="SvgjsTspan1671" style="text-decoration:;">收到ACK</tspan></tspan></text></g></g><g id="SvgjsG1672" transform="translate(186.2513885498047,835.9006881713867)"><path id="SvgjsPath1673" d="M 0 0L 100 0L 0 0M 0 70L 100 70L 0 70Z" stroke="none" fill-opacity="1" fill="#ffffff"></path><path id="SvgjsPath1674" d="M 0 0L 100 0L 100 70L 0 70L 0 0Z" stroke="none" fill="none"></path><g id="SvgjsG1675"><text id="SvgjsText1676" font-family="微软雅黑" text-anchor="middle" font-size="13px" width="52" fill="#323232" font-weight="400" align="middle" anchor="middle" family="微软雅黑" size="13px" weight="400" font-style="" y="17.05" transform="rotate(0)"><tspan id="SvgjsTspan1677" dy="16" x="50"><tspan id="SvgjsTspan1678" style="text-decoration:;">收到FIN</tspan></tspan><tspan id="SvgjsTspan1679" dy="16" x="50"><tspan id="SvgjsTspan1680" style="text-decoration:;">发送ACK</tspan></tspan></text></g></g><g id="SvgjsG1681" transform="translate(203.0013885498047,760.9006881713867)"><path id="SvgjsPath1682" d="M 0 0L 110.33331298828125 0L 0 0M 0 66.4444580078125L 110.33331298828125 66.4444580078125L 0 66.4444580078125Z" stroke="none" fill-opacity="1" fill="#ffffff"></path><path id="SvgjsPath1683" d="M 0 0L 110.33331298828125 0L 110.33331298828125 66.4444580078125L 0 66.4444580078125L 0 0Z" stroke="none" fill="none"></path><g id="SvgjsG1684"><text id="SvgjsText1685" font-family="微软雅黑" text-anchor="middle" font-size="13px" width="86" fill="#323232" font-weight="400" align="middle" anchor="middle" family="微软雅黑" size="13px" weight="400" font-style="" y="15.27222900390625" transform="rotate(0)"><tspan id="SvgjsTspan1686" dy="16" x="55.5"><tspan id="SvgjsTspan1687" style="text-decoration:;">收到FIN，ACK</tspan></tspan><tspan id="SvgjsTspan1688" dy="16" x="55.5"><tspan id="SvgjsTspan1689" style="text-decoration:;">发送ACK</tspan></tspan></text></g></g><g id="SvgjsG1690" transform="translate(361.0013885498047,765.9006881713867)"><path id="SvgjsPath1691" d="M 0 0L 100 0L 0 0M 0 70L 100 70L 0 70Z" stroke="none" fill-opacity="1" fill="#ffffff"></path><path id="SvgjsPath1692" d="M 0 0L 100 0L 100 70L 0 70L 0 0Z" stroke="none" fill="none"></path><g id="SvgjsG1693"><text id="SvgjsText1694" font-family="微软雅黑" text-anchor="middle" font-size="13px" width="52" fill="#323232" font-weight="400" align="middle" anchor="middle" family="微软雅黑" size="13px" weight="400" font-style="" y="25.05" transform="rotate(0)"><tspan id="SvgjsTspan1695" dy="16" x="50"><tspan id="SvgjsTspan1696" style="text-decoration:;">收到ACK</tspan></tspan></text></g></g><g id="SvgjsG1697" transform="translate(103.00138854980469,527.9006881713867)"><path id="SvgjsPath1698" d="M 0 0L 100 0L 0 0M 0 70L 100 70L 0 70Z" stroke="none" fill-opacity="1" fill="#ffffff"></path><path id="SvgjsPath1699" d="M 0 0L 100 0L 100 70L 0 70L 0 0Z" stroke="none" fill="none"></path><g id="SvgjsG1700"><text id="SvgjsText1701" font-family="微软雅黑" text-anchor="middle" font-size="13px" width="47" fill="#323232" font-weight="400" align="middle" anchor="middle" family="微软雅黑" size="13px" weight="400" font-style="" y="17.05" transform="rotate(0)"><tspan id="SvgjsTspan1702" dy="16" x="50"><tspan id="SvgjsTspan1703" style="text-decoration:;">关闭</tspan></tspan><tspan id="SvgjsTspan1704" dy="16" x="50"><tspan id="SvgjsTspan1705" style="text-decoration:;">发送FIN</tspan></tspan></text></g></g><g id="SvgjsG1706" transform="translate(167.0013885498047,604.9006881713867)"><path id="SvgjsPath1707" d="M 0 0L 100 0L 0 0M 0 70L 100 70L 0 70Z" stroke="none" fill-opacity="1" fill="#ffffff"></path><path id="SvgjsPath1708" d="M 0 0L 100 0L 100 70L 0 70L 0 0Z" stroke="none" fill="none"></path><g id="SvgjsG1709"><text id="SvgjsText1710" font-family="微软雅黑" text-anchor="middle" font-size="13px" width="47" fill="#323232" font-weight="400" align="middle" anchor="middle" family="微软雅黑" size="13px" weight="400" font-style="" y="17.05" transform="rotate(0)"><tspan id="SvgjsTspan1711" dy="16" x="50"><tspan id="SvgjsTspan1712" style="text-decoration:;">关闭</tspan></tspan><tspan id="SvgjsTspan1713" dy="16" x="50"><tspan id="SvgjsTspan1714" style="text-decoration:;">发送FIN</tspan></tspan></text></g></g><g id="SvgjsG1715" transform="translate(486.0013885498047,618.9006881713867)"><path id="SvgjsPath1716" d="M 0 0L 100 0L 0 0M 0 70L 100 70L 0 70Z" stroke="none" fill-opacity="1" fill="#ffffff"></path><path id="SvgjsPath1717" d="M 0 0L 100 0L 100 70L 0 70L 0 0Z" stroke="none" fill="none"></path><g id="SvgjsG1718"><text id="SvgjsText1719" font-family="微软雅黑" text-anchor="middle" font-size="13px" width="47" fill="#323232" font-weight="400" align="middle" anchor="middle" family="微软雅黑" size="13px" weight="400" font-style="" y="17.05" transform="rotate(0)"><tspan id="SvgjsTspan1720" dy="16" x="50"><tspan id="SvgjsTspan1721" style="text-decoration:;">关闭</tspan></tspan><tspan id="SvgjsTspan1722" dy="16" x="50"><tspan id="SvgjsTspan1723" style="text-decoration:;">发送FIN</tspan></tspan></text></g></g><g id="SvgjsG1724" transform="translate(634.0013885498047,681.7895889282227)"><path id="SvgjsPath1725" d="M 0 0L 100 0L 0 0M 0 70L 100 70L 0 70Z" stroke="none" fill-opacity="1" fill="#ffffff"></path><path id="SvgjsPath1726" d="M 0 0L 100 0L 100 70L 0 70L 0 0Z" stroke="none" fill="none"></path><g id="SvgjsG1727"><text id="SvgjsText1728" font-family="微软雅黑" text-anchor="middle" font-size="13px" width="52" fill="#323232" font-weight="400" align="middle" anchor="middle" family="微软雅黑" size="13px" weight="400" font-style="" y="25.05" transform="rotate(0)"><tspan id="SvgjsTspan1729" dy="16" x="50"><tspan id="SvgjsTspan1730" style="text-decoration:;">收到ACK</tspan></tspan></text></g></g><g id="SvgjsG1731" transform="translate(507.2513885498047,500.6784858703613)"><path id="SvgjsPath1732" d="M 0 0L 116.5 0L 116.5 27.22220230102539L 0 27.22220230102539Z" stroke="#323232" stroke-width="2" fill-opacity="1" fill="#ffffff"></path><g id="SvgjsG1733"><text id="SvgjsText1734" font-family="微软雅黑" text-anchor="middle" font-size="13px" width="52" fill="#323232" font-weight="400" align="middle" anchor="middle" family="微软雅黑" size="13px" weight="400" font-style="" y="3.661101150512695" transform="rotate(0)"><tspan id="SvgjsTspan1735" dy="16" x="58.5"><tspan id="SvgjsTspan1736" style="text-decoration:;">被动关闭</tspan></tspan></text></g></g><g id="SvgjsG1737" transform="translate(623.7513885498047,368.9006881713867)"><path id="SvgjsPath1738" d="M 0 0L 100 0L 0 0M 0 70L 100 70L 0 70Z" stroke="none" fill-opacity="1" fill="#ffffff"></path><path id="SvgjsPath1739" d="M 0 0L 100 0L 100 70L 0 70L 0 0Z" stroke="none" fill="none"></path><g id="SvgjsG1740"><text id="SvgjsText1741" font-family="微软雅黑" text-anchor="middle" font-size="13px" width="52" fill="#323232" font-weight="400" align="middle" anchor="middle" family="微软雅黑" size="13px" weight="400" font-style="" y="17.05" transform="rotate(0)"><tspan id="SvgjsTspan1742" dy="16" x="50"><tspan id="SvgjsTspan1743" style="text-decoration:;">关闭</tspan></tspan><tspan id="SvgjsTspan1744" dy="16" x="50"><tspan id="SvgjsTspan1745" style="text-decoration:;">或者超时</tspan></tspan></text></g></g><g id="SvgjsG1746" transform="translate(339.2513885498047,25.01178741455078)"><path id="SvgjsPath1747" d="M 0 0L 221 0L 0 0M 0 32.444454193115234L 221 32.444454193115234L 0 32.444454193115234Z" stroke="#e5e5e5" stroke-width="2" fill-opacity="1" fill="#ffffff"></path><path id="SvgjsPath1748" d="M 0 0L 221 0L 221 32.444454193115234L 0 32.444454193115234L 0 0Z" stroke="none" fill="none"></path><g id="SvgjsG1749"><text id="SvgjsText1750" font-family="微软雅黑" text-anchor="middle" font-size="13px" width="104" fill="#323232" font-weight="700" align="middle" anchor="middle" family="微软雅黑" size="13px" weight="700" font-style="" y="6.272227096557617" transform="rotate(0)"><tspan id="SvgjsTspan1751" dy="16" x="110.5"><tspan id="SvgjsTspan1752" style="text-decoration:;">TCP的有限状态机</tspan></tspan></text></g></g><g id="SvgjsG1753" transform="translate(25.001388549804688,25.01178741455078)"><path id="SvgjsPath1754" d="M 0 84.77778816223145L 0 0L 169.44444274902344 0L 169.44444274902344 84.77778816223145Q 127.08333206176758 60.55556297302246 84.72222137451172 84.77778816223145Q 42.36111068725586 109.00001335144043 0 84.77778816223145Z" stroke="#cfcfcf" stroke-width="2" fill-opacity="1" fill="#ffffff"></path><g id="SvgjsG1755"><text id="SvgjsText1756" font-family="微软雅黑" text-anchor="middle" font-size="13px" width="156" fill="#323232" font-weight="400" align="middle" anchor="middle" family="微软雅黑" size="13px" weight="400" font-style="" y="9.650005340576175" transform="rotate(0)"><tspan id="SvgjsTspan1757" dy="16" x="85"><tspan id="SvgjsTspan1758" style="text-decoration:;">实线代表客户端与通用变迁</tspan></tspan><tspan id="SvgjsTspan1759" dy="16" x="85"><tspan id="SvgjsTspan1760" style="text-decoration:;">细虚线代表服务段变迁</tspan></tspan><tspan id="SvgjsTspan1761" dy="16" x="85"><tspan id="SvgjsTspan1762" style="text-decoration:;">中等虚线代表被动端变迁</tspan></tspan><tspan id="SvgjsTspan1763" dy="16" x="85"><tspan id="SvgjsTspan1764" style="text-decoration:;">点线虚线</tspan></tspan></text></g></g></svg>