<svg id="SvgjsSvg1567" width="677.5125122070312" height="780.2000045776367" xmlns="http://www.w3.org/2000/svg" version="1.1" xmlns:xlink="http://www.w3.org/1999/xlink" xmlns:svgjs="http://svgjs.com/svgjs"><defs id="SvgjsDefs1568"><marker id="SvgjsMarker1664" markerWidth="16" markerHeight="12" refX="16" refY="6" viewBox="0 0 16 12" orient="auto" markerUnits="userSpaceOnUse"><path id="SvgjsPath1665" d="M0,2 L14,6 L0,11 L0,2" fill="#323232" stroke="#323232" stroke-width="2"></path></marker><marker id="SvgjsMarker1668" markerWidth="16" markerHeight="12" refX="16" refY="6" viewBox="0 0 16 12" orient="auto" markerUnits="userSpaceOnUse"><path id="SvgjsPath1669" d="M0,2 L14,6 L0,11 L0,2" fill="#323232" stroke="#323232" stroke-width="2"></path></marker><marker id="SvgjsMarker1672" markerWidth="16" markerHeight="12" refX="0" refY="6" viewBox="0 0 16 12" orient="auto" markerUnits="userSpaceOnUse"><path id="SvgjsPath1673" d="M15,1.5 L2,6 L15,10.5" fill="#323232" stroke="#323232" stroke-width="2"></path></marker><marker id="SvgjsMarker1712" markerWidth="16" markerHeight="12" refX="0" refY="6" viewBox="0 0 16 12" orient="auto" markerUnits="userSpaceOnUse"><path id="SvgjsPath1713" d="M15,1.5 L2,6 L15,10.5" fill="#323232" stroke="#323232" stroke-width="2"></path></marker><marker id="SvgjsMarker1716" markerWidth="16" markerHeight="12" refX="16" refY="6" viewBox="0 0 16 12" orient="auto" markerUnits="userSpaceOnUse"><path id="SvgjsPath1717" d="M0,2 L14,6 L0,11 L0,2" fill="#323232" stroke="#323232" stroke-width="2"></path></marker><marker id="SvgjsMarker1720" markerWidth="16" markerHeight="12" refX="0" refY="6" viewBox="0 0 16 12" orient="auto" markerUnits="userSpaceOnUse"><path id="SvgjsPath1721" d="M15,1.5 L2,6 L15,10.5" fill="#323232" stroke="#323232" stroke-width="2"></path></marker><marker id="SvgjsMarker1724" markerWidth="16" markerHeight="12" refX="16" refY="6" viewBox="0 0 16 12" orient="auto" markerUnits="userSpaceOnUse"><path id="SvgjsPath1725" d="M0,2 L14,6 L0,11 L0,2" fill="#323232" stroke="#323232" stroke-width="2"></path></marker><marker id="SvgjsMarker1728" markerWidth="16" markerHeight="12" refX="16" refY="6" viewBox="0 0 16 12" orient="auto" markerUnits="userSpaceOnUse"><path id="SvgjsPath1729" d="M0,2 L14,6 L0,11 L0,2" fill="#323232" stroke="#323232" stroke-width="2"></path></marker><marker id="SvgjsMarker1732" markerWidth="16" markerHeight="12" refX="16" refY="6" viewBox="0 0 16 12" orient="auto" markerUnits="userSpaceOnUse"><path id="SvgjsPath1733" d="M0,2 L14,6 L0,11 L0,2" fill="#323232" stroke="#323232" stroke-width="2"></path></marker></defs><rect id="SvgjsRect1569" width="677.5125122070312" height="780.2000045776367" fill="#ffffff"></rect><g id="SvgjsG1570" transform="translate(26.512489318847656,199.99999237060547)"><path id="SvgjsPath1571" d="M 0 4Q 0 0 4 0L 622 0Q 626 0 626 4L 626 420Q 626 424 622 424L 4 424Q 0 424 0 420Z" stroke="#323232" stroke-width="2" fill-opacity="1" fill="#ffffff"></path><g id="SvgjsG1572"><text id="SvgjsText1573" font-family="微软雅黑" text-anchor="middle" font-size="13px" width="0" fill="#323232" font-weight="400" align="middle" anchor="middle" family="微软雅黑" size="13px" weight="400" font-style="" y="21.335714285714285" transform="rotate(0)"></text></g></g><g id="SvgjsG1574" transform="translate(262.76248931884766,202.99999237060547)"><path id="SvgjsPath1575" d="M 0 0L 160 0L 160 40L 0 40Z" stroke="none" fill="none"></path><g id="SvgjsG1576"><text id="SvgjsText1577" font-family="微软雅黑" text-anchor="middle" font-size="18px" width="108" fill="#323232" font-weight="400" align="middle" anchor="middle" family="微软雅黑" size="18px" weight="400" font-style="" y="6.300000000000001" transform="rotate(0)"><tspan id="SvgjsTspan1578" dy="22" x="80"><tspan id="SvgjsTspan1579" style="text-decoration:;">运行时数据区</tspan></tspan></text></g></g><g id="SvgjsG1580" transform="translate(80.01248931884766,268.99999237060547)"><path id="SvgjsPath1581" d="M 0 4Q 0 0 4 0L 173 0Q 177 0 177 4L 177 297Q 177 301 173 301L 4 301Q 0 301 0 297Z" stroke="#ff3333" stroke-width="2" fill-opacity="1" fill="#ffffff"></path><g id="SvgjsG1582"><text id="SvgjsText1583" font-family="微软雅黑" text-anchor="middle" font-size="13px" width="0" fill="#323232" font-weight="400" align="middle" anchor="middle" family="微软雅黑" size="13px" weight="400" font-style="" y="12.55" transform="rotate(0)"></text></g></g><g id="SvgjsG1584" transform="translate(288.76248931884766,268.99999237060547)"><path id="SvgjsPath1585" d="M 0 4Q 0 0 4 0L 337 0Q 341 0 341 4L 341 297Q 341 301 337 301L 4 301Q 0 301 0 297Z" stroke="#3333ff" stroke-width="2" fill-opacity="1" fill="#ffffff"></path><g id="SvgjsG1586"><text id="SvgjsText1587" font-family="微软雅黑" text-anchor="middle" font-size="13px" width="0" fill="#323232" font-weight="400" align="middle" anchor="middle" family="微软雅黑" size="13px" weight="400" font-style="" y="12.55" transform="rotate(0)"></text></g></g><g id="SvgjsG1588" transform="translate(90.26248931884766,440.99999237060547)"><path id="SvgjsPath1589" d="M 0 4Q 0 0 4 0L 154 0Q 158 0 158 4L 158 114Q 158 118 154 118L 4 118Q 0 118 0 114Z" stroke="#323232" stroke-width="2" fill-opacity="1" fill="#ffffff"></path><g id="SvgjsG1590"><text id="SvgjsText1591" font-family="微软雅黑" text-anchor="middle" font-size="13px" width="0" fill="#323232" font-weight="400" align="middle" anchor="middle" family="微软雅黑" size="13px" weight="400" font-style="" y="-0.5214285714285711" transform="rotate(0)"></text></g></g><g id="SvgjsG1592" transform="translate(91.26248931884766,282.99999237060547)"><path id="SvgjsPath1593" d="M 0 4Q 0 0 4 0L 154 0Q 158 0 158 4L 158 131Q 158 135 154 135L 4 135Q 0 135 0 131Z" stroke="#323232" stroke-width="2" fill-opacity="1" fill="#ffffff"></path><g id="SvgjsG1594"><text id="SvgjsText1595" font-family="微软雅黑" text-anchor="middle" font-size="13px" width="0" fill="#323232" font-weight="400" align="middle" anchor="middle" family="微软雅黑" size="13px" weight="400" font-style="" y="0.6928571428571424" transform="rotate(0)"></text></g></g><g id="SvgjsG1596" transform="translate(89.26248931884766,323.49999237060547)"><path id="SvgjsPath1597" d="M 0 0L 160 0L 160 40L 0 40Z" stroke="none" fill="none"></path><g id="SvgjsG1598"><text id="SvgjsText1599" font-family="微软雅黑" text-anchor="middle" font-size="23px" width="145" fill="#323232" font-weight="400" align="middle" anchor="middle" family="微软雅黑" size="23px" weight="400" font-style="" y="-12.45" transform="rotate(0)"><tspan id="SvgjsTspan1600" dy="28" x="80"><tspan id="SvgjsTspan1601" style="text-decoration:;">方法区</tspan></tspan><tspan id="SvgjsTspan1602" dy="28" x="80"><tspan id="SvgjsTspan1603" style="text-decoration:;">Method Area</tspan></tspan></text></g></g><g id="SvgjsG1604" transform="translate(94.76248931884766,466.99999237060547)"><path id="SvgjsPath1605" d="M 0 0L 154.5 0L 154.5 58L 0 58Z" stroke="none" fill="none"></path><g id="SvgjsG1606"><text id="SvgjsText1607" font-family="微软雅黑" text-anchor="middle" font-size="23px" width="58" fill="#323232" font-weight="400" align="middle" anchor="middle" family="微软雅黑" size="23px" weight="400" font-style="" y="-3.4499999999999997" transform="rotate(0)"><tspan id="SvgjsTspan1608" dy="28" x="77.5"><tspan id="SvgjsTspan1609" style="text-decoration:;">堆</tspan></tspan><tspan id="SvgjsTspan1610" dy="28" x="77.5"><tspan id="SvgjsTspan1611" style="text-decoration:;">Heap</tspan></tspan></text></g></g><g id="SvgjsG1612" transform="translate(304.26248931884766,442.99999237060547)"><path id="SvgjsPath1613" d="M 0 4Q 0 0 4 0L 306 0Q 310 0 310 4L 310 110Q 310 114 306 114L 4 114Q 0 114 0 110Z" stroke="#323232" stroke-width="2" fill-opacity="1" fill="#ffffff"></path><g id="SvgjsG1614"><text id="SvgjsText1615" font-family="微软雅黑" text-anchor="middle" font-size="13px" width="0" fill="#323232" font-weight="400" align="middle" anchor="middle" family="微软雅黑" size="13px" weight="400" font-style="" y="-0.8071428571428576" transform="rotate(0)"></text></g></g><g id="SvgjsG1616" transform="translate(304.26248931884766,474.99999237060547)"><path id="SvgjsPath1617" d="M 0 0L 310 0L 310 50L 0 50Z" stroke="none" fill="none"></path><g id="SvgjsG1618"><text id="SvgjsText1619" font-family="微软雅黑" text-anchor="middle" font-size="23px" width="287" fill="#323232" font-weight="400" align="middle" anchor="middle" family="微软雅黑" size="23px" weight="400" font-style="" y="-7.449999999999999" transform="rotate(0)"><tspan id="SvgjsTspan1620" dy="28" x="155"><tspan id="SvgjsTspan1621" style="text-decoration:;">程序计数器</tspan></tspan><tspan id="SvgjsTspan1622" dy="28" x="155"><tspan id="SvgjsTspan1623" style="text-decoration:;">Program Counter Register</tspan></tspan></text></g></g><g id="SvgjsG1624" transform="translate(307.76248931884766,282.99999237060547)"><path id="SvgjsPath1625" d="M 0 4Q 0 0 4 0L 141 0Q 145 0 145 4L 145 131Q 145 135 141 135L 4 135Q 0 135 0 131Z" stroke="#323232" stroke-width="2" fill-opacity="1" fill="#ffffff"></path><g id="SvgjsG1626"><text id="SvgjsText1627" font-family="微软雅黑" text-anchor="middle" font-size="13px" width="0" fill="#323232" font-weight="400" align="middle" anchor="middle" family="微软雅黑" size="13px" weight="400" font-style="" y="57.55" transform="rotate(0)"></text></g></g><g id="SvgjsG1628" transform="translate(466.76248931884766,282.99999237060547)"><path id="SvgjsPath1629" d="M 0 4Q 0 0 4 0L 143.5 0Q 147.5 0 147.5 4L 147.5 131Q 147.5 135 143.5 135L 4 135Q 0 135 0 131Z" stroke="#323232" stroke-width="2" fill-opacity="1" fill="#ffffff"></path><g id="SvgjsG1630"><text id="SvgjsText1631" font-family="微软雅黑" text-anchor="middle" font-size="13px" width="0" fill="#323232" font-weight="400" align="middle" anchor="middle" family="微软雅黑" size="13px" weight="400" font-style="" y="0.6928571428571424" transform="rotate(0)"></text></g></g><g id="SvgjsG1632" transform="translate(292.76248931884766,315.99999237060547)"><path id="SvgjsPath1633" d="M 0 0L 160 0L 160 40L 0 40Z" stroke="none" fill="none"></path><g id="SvgjsG1634"><text id="SvgjsText1635" font-family="微软雅黑" text-anchor="middle" font-size="23px" width="112" fill="#323232" font-weight="400" align="middle" anchor="middle" family="微软雅黑" size="23px" weight="400" font-style="" y="-12.45" transform="rotate(0)"><tspan id="SvgjsTspan1636" dy="28" x="80"><tspan id="SvgjsTspan1637" style="text-decoration:;">Java栈</tspan></tspan><tspan id="SvgjsTspan1638" dy="28" x="80"><tspan id="SvgjsTspan1639" style="text-decoration:;">Java Stack</tspan></tspan></text></g></g><g id="SvgjsG1640" transform="translate(460.51248931884766,320.99999237060547)"><path id="SvgjsPath1641" d="M 0 0L 160 0L 160 40L 0 40Z" stroke="none" fill="none"></path><g id="SvgjsG1642"><text id="SvgjsText1643" font-family="微软雅黑" text-anchor="middle" font-size="20px" width="144" fill="#323232" font-weight="400" align="middle" anchor="middle" family="微软雅黑" size="20px" weight="400" font-style="" y="-20" transform="rotate(0)"><tspan id="SvgjsTspan1644" dy="25" x="80"><tspan id="SvgjsTspan1645" style="text-decoration:;">本地方法栈</tspan></tspan><tspan id="SvgjsTspan1646" dy="25" x="80"><tspan id="SvgjsTspan1647" style="text-decoration:;">Native Method </tspan></tspan><tspan id="SvgjsTspan1648" dy="25" x="80"><tspan id="SvgjsTspan1649" style="text-decoration:;">Stack</tspan></tspan></text></g></g><g id="SvgjsG1650" transform="translate(370.26248931884766,25)"><path id="SvgjsPath1651" d="M 0 4Q 0 0 4 0L 174 0Q 178 0 178 4L 178 69.99998474121094Q 178 73.99998474121094 174 73.99998474121094L 4 73.99998474121094Q 0 73.99998474121094 0 69.99998474121094Z" stroke="#323232" stroke-width="2" fill-opacity="1" fill="#ffffff"></path><g id="SvgjsG1652"><text id="SvgjsText1653" font-family="微软雅黑" text-anchor="middle" font-size="13px" width="0" fill="#323232" font-weight="400" align="middle" anchor="middle" family="微软雅黑" size="13px" weight="400" font-style="" y="-3.664286804199219" transform="rotate(0)"></text></g></g><g id="SvgjsG1654" transform="translate(379.26248931884766,41.99999237060547)"><path id="SvgjsPath1655" d="M 0 0L 160 0L 160 40L 0 40Z" stroke="none" fill="none"></path><g id="SvgjsG1656"><text id="SvgjsText1657" font-family="微软雅黑" text-anchor="middle" font-size="23px" width="138" fill="#323232" font-weight="400" align="middle" anchor="middle" family="微软雅黑" size="23px" weight="400" font-style="" y="-12.45" transform="rotate(0)"><tspan id="SvgjsTspan1658" dy="28" x="80"><tspan id="SvgjsTspan1659" style="text-decoration:;">类加载器</tspan></tspan><tspan id="SvgjsTspan1660" dy="28" x="80"><tspan id="SvgjsTspan1661" style="text-decoration:;">Class Loader</tspan></tspan></text></g></g><g id="SvgjsG1662"><path id="SvgjsPath1663" d="M262.76248931884766 61.99999237060547L370.26248931884766 61.99999237060547" stroke="#323232" stroke-width="2" fill="none" marker-end="url(#SvgjsMarker1664)"></path></g><g id="SvgjsG1666"><path id="SvgjsPath1667" d="M422.76248931884766 97.99998664855957L422.76248931884766 197.99998664855957" stroke="#323232" stroke-width="2" fill="none" marker-end="url(#SvgjsMarker1668)"></path></g><g id="SvgjsG1670"><path id="SvgjsPath1671" d="M504.76248931884766 97.19998931884766L505.51248931884766 200.1999855041504" stroke="#323232" stroke-width="2" fill="none" marker-start="url(#SvgjsMarker1672)"></path></g><g id="SvgjsG1674" transform="translate(25.762489318847656,668.2000045776367)"><path id="SvgjsPath1675" d="M 0 4Q 0 0 4 0L 154.5 0Q 158.5 0 158.5 4L 158.5 83Q 158.5 87 154.5 87L 4 87Q 0 87 0 83Z" stroke="#323232" stroke-width="2" fill-opacity="1" fill="#ffffff"></path><g id="SvgjsG1676"><text id="SvgjsText1677" font-family="微软雅黑" text-anchor="middle" font-size="13px" width="0" fill="#323232" font-weight="400" align="middle" anchor="middle" family="微软雅黑" size="13px" weight="400" font-style="" y="-2.7357142857142867" transform="rotate(0)"></text></g></g><g id="SvgjsG1678" transform="translate(257.76248931884766,668.2000045776367)"><path id="SvgjsPath1679" d="M 0 4Q 0 0 4 0L 154.5 0Q 158.5 0 158.5 4L 158.5 83Q 158.5 87 154.5 87L 4 87Q 0 87 0 83Z" stroke="#323232" stroke-width="2" fill-opacity="1" fill="#ffffff"></path><g id="SvgjsG1680"><text id="SvgjsText1681" font-family="微软雅黑" text-anchor="middle" font-size="13px" width="0" fill="#323232" font-weight="400" align="middle" anchor="middle" family="微软雅黑" size="13px" weight="400" font-style="" y="-2.7357142857142867" transform="rotate(0)"></text></g></g><g id="SvgjsG1682" transform="translate(493.26248931884766,668.2000045776367)"><path id="SvgjsPath1683" d="M 0 4Q 0 0 4 0L 154.5 0Q 158.5 0 158.5 4L 158.5 83Q 158.5 87 154.5 87L 4 87Q 0 87 0 83Z" stroke="#323232" stroke-width="2" fill-opacity="1" fill="#ffffff"></path><g id="SvgjsG1684"><text id="SvgjsText1685" font-family="微软雅黑" text-anchor="middle" font-size="13px" width="0" fill="#323232" font-weight="400" align="middle" anchor="middle" family="微软雅黑" size="13px" weight="400" font-style="" y="-2.7357142857142867" transform="rotate(0)"></text></g></g><g id="SvgjsG1686" transform="translate(25.012489318847656,691.7000045776367)"><path id="SvgjsPath1687" d="M 0 0L 160 0L 160 40L 0 40Z" stroke="none" fill="none"></path><g id="SvgjsG1688"><text id="SvgjsText1689" font-family="微软雅黑" text-anchor="middle" font-size="17px" width="139" fill="#323232" font-weight="400" align="middle" anchor="middle" family="微软雅黑" size="17px" weight="400" font-style="" y="-3.55" transform="rotate(0)"><tspan id="SvgjsTspan1690" dy="21" x="80"><tspan id="SvgjsTspan1691" style="text-decoration:;">执行引擎</tspan></tspan><tspan id="SvgjsTspan1692" dy="21" x="80"><tspan id="SvgjsTspan1693" style="text-decoration:;">Execution Engine</tspan></tspan></text></g></g><g id="SvgjsG1694" transform="translate(257.01248931884766,691.7000045776367)"><path id="SvgjsPath1695" d="M 0 0L 160 0L 160 40L 0 40Z" stroke="none" fill="none"></path><g id="SvgjsG1696"><text id="SvgjsText1697" font-family="微软雅黑" text-anchor="middle" font-size="17px" width="129" fill="#323232" font-weight="400" align="middle" anchor="middle" family="微软雅黑" size="17px" weight="400" font-style="" y="-3.55" transform="rotate(0)"><tspan id="SvgjsTspan1698" dy="21" x="80"><tspan id="SvgjsTspan1699" style="text-decoration:;">本地接口</tspan></tspan><tspan id="SvgjsTspan1700" dy="21" x="80"><tspan id="SvgjsTspan1701" style="text-decoration:;">Native Interface</tspan></tspan></text></g></g><g id="SvgjsG1702" transform="translate(492.51248931884766,691.7000045776367)"><path id="SvgjsPath1703" d="M 0 0L 160 0L 160 40L 0 40Z" stroke="none" fill="none"></path><g id="SvgjsG1704"><text id="SvgjsText1705" font-family="微软雅黑" text-anchor="middle" font-size="17px" width="126" fill="#323232" font-weight="400" align="middle" anchor="middle" family="微软雅黑" size="17px" weight="400" font-style="" y="-3.55" transform="rotate(0)"><tspan id="SvgjsTspan1706" dy="21" x="80"><tspan id="SvgjsTspan1707" style="text-decoration:;">本地库</tspan></tspan><tspan id="SvgjsTspan1708" dy="21" x="80"><tspan id="SvgjsTspan1709" style="text-decoration:;">Native Libraries</tspan></tspan></text></g></g><g id="SvgjsG1710"><path id="SvgjsPath1711" d="M65.76248931884766 668.2000045776367L66.51248931884766 623.2000045776367" stroke="#323232" stroke-width="2" fill="none" marker-start="url(#SvgjsMarker1712)"></path></g><g id="SvgjsG1714"><path id="SvgjsPath1715" d="M145.76248931884766 668.2000045776367L146.51248931884766 623.2000045776367" stroke="#323232" stroke-width="2" fill="none" marker-end="url(#SvgjsMarker1716)"></path></g><g id="SvgjsG1718"><path id="SvgjsPath1719" d="M297.76248931884766 668.2000045776367L298.51248931884766 623.2000045776367" stroke="#323232" stroke-width="2" fill="none" marker-start="url(#SvgjsMarker1720)"></path></g><g id="SvgjsG1722"><path id="SvgjsPath1723" d="M375.76248931884766 668.2000045776367L376.51248931884766 623.2000045776367" stroke="#323232" stroke-width="2" fill="none" marker-end="url(#SvgjsMarker1724)"></path></g><g id="SvgjsG1726"><path id="SvgjsPath1727" d="M416.26248931884766 711.7000045776367L493.26248931884766 711.7000045776367" stroke="#323232" stroke-width="2" fill="none" marker-end="url(#SvgjsMarker1728)"></path></g><g id="SvgjsG1730"><path id="SvgjsPath1731" d="M184.26248931884766 711.7000045776367L257.76248931884766 711.7000045776367" stroke="#323232" stroke-width="2" fill="none" marker-end="url(#SvgjsMarker1732)"></path></g><g id="SvgjsG1734"><path id="SvgjsPath1735" d="M205.56249237060547 219.19998931884766L155.06249237060547 219.19998931884766L155.06249237060547 219.19998931884766L104.56249237060547 219.19998931884766" stroke="#0000ff" stroke-width="2" fill="none"></path><rect id="SvgjsRect1736" width="52" height="16" x="129.06249237060547" y="211.19998931884766" fill="#ffffff"></rect><text id="SvgjsText1737" font-family="微软雅黑" text-anchor="middle" font-size="13px" width="52" fill="#323232" font-weight="400" align="top" anchor="middle" family="微软雅黑" size="13px" weight="400" font-style="" y="209.24998931884767" transform="rotate(0)"><tspan id="SvgjsTspan1738" dy="16" x="155.06249237060547"><tspan id="SvgjsTspan1739" style="text-decoration:;">线程私有</tspan></tspan></text></g><g id="SvgjsG1740"><path id="SvgjsPath1741" d="M206.56249237060547 238.19998931884766L155.56249237060547 238.19998931884766L155.56249237060547 238.19998931884766L104.56249237060547 238.19998931884766" stroke="#ff3333" stroke-width="2" fill="none"></path><rect id="SvgjsRect1742" width="52" height="16" x="129.56249237060547" y="230.19998931884766" fill="#ffffff"></rect><text id="SvgjsText1743" font-family="微软雅黑" text-anchor="middle" font-size="13px" width="52" fill="#323232" font-weight="400" align="top" anchor="middle" family="微软雅黑" size="13px" weight="400" font-style="" y="228.24998931884767" transform="rotate(0)"><tspan id="SvgjsTspan1744" dy="16" x="155.56249237060547"><tspan id="SvgjsTspan1745" style="text-decoration:;">线程共享</tspan></tspan></text></g><g id="SvgjsG1746" transform="translate(106.56249237060547,25)"><path id="SvgjsPath1747" d="M 0 4Q 0 0 4 0L 152.1999969482422 0Q 156.1999969482422 0 156.1999969482422 4L 156.1999969482422 69.99998474121094Q 156.1999969482422 73.99998474121094 152.1999969482422 73.99998474121094L 4 73.99998474121094Q 0 73.99998474121094 0 69.99998474121094Z" stroke="#323232" stroke-width="2" fill-opacity="1" fill="#ffffff"></path><g id="SvgjsG1748"><text id="SvgjsText1749" font-family="微软雅黑" text-anchor="middle" font-size="13px" width="0" fill="#323232" font-weight="400" align="middle" anchor="middle" family="微软雅黑" size="13px" weight="400" font-style="" y="-3.664286804199219" transform="rotate(0)"></text></g></g><g id="SvgjsG1750" transform="translate(104.66249084472656,39.199989318847656)"><path id="SvgjsPath1751" d="M 0 0L 160 0L 160 40L 0 40Z" stroke="none" fill="none"></path><g id="SvgjsG1752"><text id="SvgjsText1753" font-family="微软雅黑" text-anchor="middle" font-size="18px" width="134" fill="#323232" font-weight="400" align="middle" anchor="middle" family="微软雅黑" size="18px" weight="400" font-style="" y="6.300000000000001" transform="rotate(0)"><tspan id="SvgjsTspan1754" dy="22" x="80"><tspan id="SvgjsTspan1755" style="text-decoration:;">.class字节码文件</tspan></tspan></text></g></g></svg>